solid OpenSCAD_Model
  facet normal 0 -1 0
    outer loop
      vertex 1.5 2.7000000029802322 -0.1
      vertex 1 2.7000000029802322 0.1
      vertex 1 2.7000000029802322 -0.1
    endloop
  endfacet
  facet normal 1 0 0
    outer loop
      vertex 1.5 3.2000000029802322 -0.1
      vertex 1.5 2.7000000029802322 0.1
      vertex 1.5 2.7000000029802322 -0.1
    endloop
  endfacet
  facet normal -0.4472135954999579 -0.8944271909999159 0
    outer loop
      vertex 1 2.7000000029802322 -0.1
      vertex 1 2.7000000029802322 0.1
      vertex 0 3.2000000029802322 0.1
    endloop
  endfacet
  facet normal 0 -1 0
    outer loop
      vertex 1.5 2.7000000029802322 -0.1
      vertex 1.5 2.7000000029802322 0.1
      vertex 1 2.7000000029802322 0.1
    endloop
  endfacet
  facet normal -0.4472135954999579 -0.8944271909999159 0
    outer loop
      vertex 1 2.7000000029802322 -0.1
      vertex 0 3.2000000029802322 0.1
      vertex 0 3.2000000029802322 -0.1
    endloop
  endfacet
  facet normal 1 0 0
    outer loop
      vertex 1.5 3.2000000029802322 -0.1
      vertex 1.5 3.2000000029802322 0.1
      vertex 1.5 2.7000000029802322 0.1
    endloop
  endfacet
  facet normal -1 0 0
    outer loop
      vertex 0 3.2000000029802322 -0.1
      vertex 0 4.4 0.1
      vertex 0 4.4 -0.1
    endloop
  endfacet
  facet normal -1 0 0
    outer loop
      vertex 0 3.2000000029802322 -0.1
      vertex 0 3.2000000029802322 0.1
      vertex 0 4.4 0.1
    endloop
  endfacet
  facet normal 0 -1 0
    outer loop
      vertex 1.5 3.2000000029802322 0.1
      vertex 1.5 3.2000000029802322 -0.1
      vertex 16.259999999999998 3.2000000029802322 -0.1
    endloop
  endfacet
  facet normal 0 1 0
    outer loop
      vertex 0 4.4 -0.1
      vertex 0 4.4 0.1
      vertex 5.5 4.4 0.1
    endloop
  endfacet
  facet normal 0 -1 0
    outer loop
      vertex 5.4999999999999964 5.21 -0.1
      vertex 0 5.21 0.1
      vertex 0 5.21 -0.1
    endloop
  endfacet
  facet normal 0 1 0
    outer loop
      vertex 5.5 4.4 -0.1
      vertex 0 4.4 -0.1
      vertex 5.5 4.4 0.1
    endloop
  endfacet
  facet normal 0 -1 0
    outer loop
      vertex 0 5.21 0.1
      vertex 5.4999999999999964 5.21 -0.1
      vertex 5.499999999999997 5.21 0.1
    endloop
  endfacet
  facet normal -1 0 0
    outer loop
      vertex 0 5.21 -0.1
      vertex 0 5.21 0.1
      vertex 0 7 0.1
    endloop
  endfacet
  facet normal -1 0 0
    outer loop
      vertex 0 7 -0.1
      vertex 0 5.21 -0.1
      vertex 0 7 0.1
    endloop
  endfacet
  facet normal -1 -3.2895497025930584e-15 0
    outer loop
      vertex 5.5 4.4 -0.1
      vertex 5.5 4.4 0.1
      vertex 5.499999999999997 5.21 0.1
    endloop
  endfacet
  facet normal -1 -4.386066270124077e-15 4.440892098500626e-15
    outer loop
      vertex 5.4999999999999964 5.21 -0.1
      vertex 5.5 4.4 -0.1
      vertex 5.499999999999997 5.21 0.1
    endloop
  endfacet
  facet normal 0 -1 0
    outer loop
      vertex 16.259999999999998 3.2000000029802322 -0.1
      vertex 16.259999999999998 3.2000000029802322 0.1
      vertex 1.5 3.2000000029802322 0.1
    endloop
  endfacet
  facet normal 0 1 0
    outer loop
      vertex 0 7 -0.1
      vertex 0 7 0.1
      vertex 24 7 -0.1
    endloop
  endfacet
  facet normal 0 -1 0
    outer loop
      vertex 16.259999999999998 0 -0.1
      vertex 24 0 -0.1
      vertex 16.259999999999998 0 0.1
    endloop
  endfacet
  facet normal -1 0 0
    outer loop
      vertex 16.259999999999998 0 -0.1
      vertex 16.259999999999998 0 0.1
      vertex 16.259999999999998 3.2000000029802322 0.1
    endloop
  endfacet
  facet normal 0 -1 0
    outer loop
      vertex 24 0 -0.1
      vertex 24 0 0.1
      vertex 16.259999999999998 0 0.1
    endloop
  endfacet
  facet normal -1 0 0
    outer loop
      vertex 16.259999999999998 0 -0.1
      vertex 16.259999999999998 3.2000000029802322 0.1
      vertex 16.259999999999998 3.2000000029802322 -0.1
    endloop
  endfacet
  facet normal 0 1 0
    outer loop
      vertex 0 7 0.1
      vertex 24 7 0.1
      vertex 24 7 -0.1
    endloop
  endfacet
  facet normal 1 0 0
    outer loop
      vertex 24 0 -0.1
      vertex 24 7 -0.1
      vertex 24 0 0.1
    endloop
  endfacet
  facet normal 1 0 0
    outer loop
      vertex 24 7 -0.1
      vertex 24 7 0.1
      vertex 24 0 0.1
    endloop
  endfacet
  facet normal 0 -1 0
    outer loop
      vertex 0 -4 0.1
      vertex 0 -4 -0.1
      vertex 4 -4 0.1
    endloop
  endfacet
  facet normal -1 0 0
    outer loop
      vertex 0 -4 0.1
      vertex 0 -0.01 0.1
      vertex 0 -4 -0.1
    endloop
  endfacet
  facet normal -1 0 0
    outer loop
      vertex 0 -0.01 0.1
      vertex 0 -0.01 -0.1
      vertex 0 -4 -0.1
    endloop
  endfacet
  facet normal 0 -1 0
    outer loop
      vertex 0 -4 -0.1
      vertex 16 -4 -0.1
      vertex 4 -4 0.1
    endloop
  endfacet
  facet normal 0 -1 0
    outer loop
      vertex -0.009999999999999787 -0.01 0.1
      vertex -0.009999999990686561 -0.01 -0.1
      vertex 0 -0.01 -0.1
    endloop
  endfacet
  facet normal 0 -1 0
    outer loop
      vertex -0.009999999999999787 -0.01 0.1
      vertex 0 -0.01 -0.1
      vertex 0 -0.01 0.1
    endloop
  endfacet
  facet normal -1 0 -4.6566127689939834e-11
    outer loop
      vertex -0.009999999999999787 2.4 0.1
      vertex -0.009999999990686561 -0.01 -0.1
      vertex -0.009999999999999787 -0.01 0.1
    endloop
  endfacet
  facet normal 0 -1 0
    outer loop
      vertex 16 -4 -0.1
      vertex 16 -4 0.1
      vertex 4 -4 0.1
    endloop
  endfacet
  facet normal -1 -3.864408936924468e-12 0
    outer loop
      vertex -0.009999999990686561 -0.01 -0.1
      vertex -0.009999999999999787 2.4 0.1
      vertex -0.009999999999999787 2.4 -0.1
    endloop
  endfacet
  facet normal 0 1 0
    outer loop
      vertex -0.009999999999999787 2.4 -0.1
      vertex 1.7599999999999998 2.4 0.1
      vertex 1.7599999999999998 2.4 -0.1
    endloop
  endfacet
  facet normal -1 0 0
    outer loop
      vertex 1.7599999999999998 2.4 -0.1
      vertex 1.7599999999999998 3 0.1
      vertex 1.7599999999999998 3 -0.1
    endloop
  endfacet
  facet normal 0 1 0
    outer loop
      vertex -0.009999999999999787 2.4 -0.1
      vertex -0.009999999999999787 2.4 0.1
      vertex 1.7599999999999998 2.4 0.1
    endloop
  endfacet
  facet normal -1 0 0
    outer loop
      vertex 1.7599999999999998 2.4 -0.1
      vertex 1.7599999999999998 2.4 0.1
      vertex 1.7599999999999998 3 0.1
    endloop
  endfacet
  facet normal 0 1 0
    outer loop
      vertex 1.7599999999999998 3 -0.1
      vertex 1.7599999999999998 3 0.1
      vertex 2.9999999999906866 3 -0.1
    endloop
  endfacet
  facet normal 0 1 0
    outer loop
      vertex 1.7599999999999998 3 0.1
      vertex 16.009999999999998 3 0.1
      vertex 2.9999999999906866 3 -0.1
    endloop
  endfacet
  facet normal 0 1 0
    outer loop
      vertex 2.9999999999906866 3 -0.1
      vertex 16.009999999999998 3 0.1
      vertex 16.009999999999998 3 -0.1
    endloop
  endfacet
  facet normal 1 0 0
    outer loop
      vertex 16 -4 -0.1
      vertex 16 -0.01 -0.1
      vertex 16 -4 0.1
    endloop
  endfacet
  facet normal 1 0 0
    outer loop
      vertex 16 -0.01 -0.1
      vertex 16 -0.01 0.1
      vertex 16 -4 0.1
    endloop
  endfacet
  facet normal 0 -1 0
    outer loop
      vertex 16.009999999999998 -0.01 -0.1
      vertex 16 -0.01 0.1
      vertex 16 -0.01 -0.1
    endloop
  endfacet
  facet normal 0 -1 0
    outer loop
      vertex 16.009999999999998 -0.01 -0.1
      vertex 16.009999999999998 -0.01 0.1
      vertex 16 -0.01 0.1
    endloop
  endfacet
  facet normal 1 0 0
    outer loop
      vertex 16.009999999999998 3 -0.1
      vertex 16.009999999999998 -0.01 0.1
      vertex 16.009999999999998 -0.01 -0.1
    endloop
  endfacet
  facet normal 1 0 0
    outer loop
      vertex 16.009999999999998 3 0.1
      vertex 16.009999999999998 -0.01 0.1
      vertex 16.009999999999998 3 -0.1
    endloop
  endfacet
  facet normal 0 0 1
    outer loop
      vertex 0 -4 0.1
      vertex 4 -4 0.1
      vertex 0 -0.01 0.1
    endloop
  endfacet
  facet normal 0 0 -1
    outer loop
      vertex 0 -4 -0.1
      vertex 0 -0.01 -0.1
      vertex 16 -4 -0.1
    endloop
  endfacet
  facet normal 0 0 1
    outer loop
      vertex -0.009999999999999787 2.4 0.1
      vertex 0 -0.01 0.1
      vertex 4 -4 0.1
    endloop
  endfacet
  facet normal 0 0 1
    outer loop
      vertex -0.009999999999999787 -0.01 0.1
      vertex 0 -0.01 0.1
      vertex -0.009999999999999787 2.4 0.1
    endloop
  endfacet
  facet normal 0 0 1
    outer loop
      vertex -0.009999999999999787 2.4 0.1
      vertex 4 -4 0.1
      vertex 1.7599999999999998 2.4 0.1
    endloop
  endfacet
  facet normal 0 0 -1
    outer loop
      vertex 0 -0.01 -0.1
      vertex -0.009999999990686561 -0.01 -0.1
      vertex 2.9999999999906866 3 -0.1
    endloop
  endfacet
  facet normal 0 0 -1
    outer loop
      vertex 16 -4 -0.1
      vertex 0 -0.01 -0.1
      vertex 2.9999999999906866 3 -0.1
    endloop
  endfacet
  facet normal 0 0 1
    outer loop
      vertex 16.009999999999998 3 0.1
      vertex 1.7599999999999998 2.4 0.1
      vertex 4 -4 0.1
    endloop
  endfacet
  facet normal 0 0 1
    outer loop
      vertex 4 -4 0.1
      vertex 16 -4 0.1
      vertex 16 -0.01 0.1
    endloop
  endfacet
  facet normal 0 0 -1
    outer loop
      vertex 16 -4 -0.1
      vertex 2.9999999999906866 3 -0.1
      vertex 16 -0.01 -0.1
    endloop
  endfacet
  facet normal 0 0 -1
    outer loop
      vertex 2.9999999999906866 3 -0.1
      vertex 16.009999999999998 -0.01 -0.1
      vertex 16 -0.01 -0.1
    endloop
  endfacet
  facet normal 0 0 1
    outer loop
      vertex 4 -4 0.1
      vertex 16 -0.01 0.1
      vertex 16.009999999999998 3 0.1
    endloop
  endfacet
  facet normal 0 0 -1
    outer loop
      vertex -0.009999999990686561 -0.01 -0.1
      vertex -0.009999999999999787 2.4 -0.1
      vertex 1.7599999999999998 2.4 -0.1
    endloop
  endfacet
  facet normal 0 0 -1
    outer loop
      vertex -0.009999999990686561 -0.01 -0.1
      vertex 1.7599999999999998 2.4 -0.1
      vertex 2.9999999999906866 3 -0.1
    endloop
  endfacet
  facet normal 0 0 -1
    outer loop
      vertex 1.5 2.7000000029802322 -0.1
      vertex 1 2.7000000029802322 -0.1
      vertex 1.5 3.2000000029802322 -0.1
    endloop
  endfacet
  facet normal 0 0 1
    outer loop
      vertex 1 2.7000000029802322 0.1
      vertex 1.5 2.7000000029802322 0.1
      vertex 1.5 3.2000000029802322 0.1
    endloop
  endfacet
  facet normal 0 0 -1
    outer loop
      vertex 1.7599999999999998 2.4 -0.1
      vertex 1.7599999999999998 3 -0.1
      vertex 2.9999999999906866 3 -0.1
    endloop
  endfacet
  facet normal 0 0 -1
    outer loop
      vertex 1 2.7000000029802322 -0.1
      vertex 0 3.2000000029802322 -0.1
      vertex 1.5 3.2000000029802322 -0.1
    endloop
  endfacet
  facet normal 0 0 1
    outer loop
      vertex 0 3.2000000029802322 0.1
      vertex 1 2.7000000029802322 0.1
      vertex 1.5 3.2000000029802322 0.1
    endloop
  endfacet
  facet normal 0 0 -1
    outer loop
      vertex 0 3.2000000029802322 -0.1
      vertex 0 4.4 -0.1
      vertex 1.5 3.2000000029802322 -0.1
    endloop
  endfacet
  facet normal 0 0 1
    outer loop
      vertex 0 3.2000000029802322 0.1
      vertex 1.5 3.2000000029802322 0.1
      vertex 0 4.4 0.1
    endloop
  endfacet
  facet normal 0 0 1
    outer loop
      vertex 5.5 4.4 0.1
      vertex 0 4.4 0.1
      vertex 1.5 3.2000000029802322 0.1
    endloop
  endfacet
  facet normal 0 0 1
    outer loop
      vertex 1.7599999999999998 3 0.1
      vertex 1.7599999999999998 2.4 0.1
      vertex 16.009999999999998 3 0.1
    endloop
  endfacet
  facet normal 0 0 -1
    outer loop
      vertex 0 4.4 -0.1
      vertex 16.259999999999998 3.2000000029802322 -0.1
      vertex 1.5 3.2000000029802322 -0.1
    endloop
  endfacet
  facet normal 0 0 -1
    outer loop
      vertex 5.5 4.4 -0.1
      vertex 16.259999999999998 3.2000000029802322 -0.1
      vertex 0 4.4 -0.1
    endloop
  endfacet
  facet normal 0 0 1
    outer loop
      vertex 1.5 3.2000000029802322 0.1
      vertex 16.259999999999998 3.2000000029802322 0.1
      vertex 5.5 4.4 0.1
    endloop
  endfacet
  facet normal 0 0 -1
    outer loop
      vertex 5.4999999999999964 5.21 -0.1
      vertex 0 5.21 -0.1
      vertex 0 7 -0.1
    endloop
  endfacet
  facet normal 0 0 -1
    outer loop
      vertex 2.9999999999906866 3 -0.1
      vertex 16.009999999999998 3 -0.1
      vertex 16.009999999999998 -0.01 -0.1
    endloop
  endfacet
  facet normal 0 0 -1
    outer loop
      vertex 5.4999999999999964 5.21 -0.1
      vertex 16.259999999999998 3.2000000029802322 -0.1
      vertex 5.5 4.4 -0.1
    endloop
  endfacet
  facet normal 0 0 1
    outer loop
      vertex 5.5 4.4 0.1
      vertex 24 7 0.1
      vertex 5.499999999999997 5.21 0.1
    endloop
  endfacet
  facet normal 0 0 1
    outer loop
      vertex 0 5.21 0.1
      vertex 5.499999999999997 5.21 0.1
      vertex 24 7 0.1
    endloop
  endfacet
  facet normal 0 0 -1
    outer loop
      vertex 5.4999999999999964 5.21 -0.1
      vertex 0 7 -0.1
      vertex 24 7 -0.1
    endloop
  endfacet
  facet normal 0 0 1
    outer loop
      vertex 0 5.21 0.1
      vertex 24 7 0.1
      vertex 0 7 0.1
    endloop
  endfacet
  facet normal 0 0 1
    outer loop
      vertex 5.5 4.4 0.1
      vertex 16.259999999999998 3.2000000029802322 0.1
      vertex 24 7 0.1
    endloop
  endfacet
  facet normal 0 0 -1
    outer loop
      vertex 5.4999999999999964 5.21 -0.1
      vertex 24 7 -0.1
      vertex 16.259999999999998 3.2000000029802322 -0.1
    endloop
  endfacet
  facet normal 0 0 1
    outer loop
      vertex 16.009999999999998 3 0.1
      vertex 16 -0.01 0.1
      vertex 16.009999999999998 -0.01 0.1
    endloop
  endfacet
  facet normal 0 0 1
    outer loop
      vertex 16.259999999999998 0 0.1
      vertex 24 0 0.1
      vertex 16.259999999999998 3.2000000029802322 0.1
    endloop
  endfacet
  facet normal 0 0 -1
    outer loop
      vertex 16.259999999999998 0 -0.1
      vertex 16.259999999999998 3.2000000029802322 -0.1
      vertex 24 7 -0.1
    endloop
  endfacet
  facet normal 0 0 -1
    outer loop
      vertex 16.259999999999998 0 -0.1
      vertex 24 7 -0.1
      vertex 24 0 -0.1
    endloop
  endfacet
  facet normal 0 0 1
    outer loop
      vertex 16.259999999999998 3.2000000029802322 0.1
      vertex 24 0 0.1
      vertex 24 7 0.1
    endloop
  endfacet
  facet normal 0 0 -1
    outer loop
      vertex 30 0 0
      vertex 32 2 0
      vertex 32 0 0
    endloop
  endfacet
  facet normal 0 0 -1
    outer loop
      vertex 32 2 0
      vertex 30 0 0
      vertex 30 2 0
    endloop
  endfacet
  facet normal 0 -1 0
    outer loop
      vertex 32 0 2
      vertex 30 0 0
      vertex 32 0 0
    endloop
  endfacet
  facet normal 1 0 0
    outer loop
      vertex 32 2 0
      vertex 32 0 2
      vertex 32 0 0
    endloop
  endfacet
  facet normal -1 0 0
    outer loop
      vertex 30 0 0
      vertex 30 2 2
      vertex 30 2 0
    endloop
  endfacet
  facet normal 0 -1 0
    outer loop
      vertex 30 0 0
      vertex 32 0 2
      vertex 30 0 2
    endloop
  endfacet
  facet normal -1 0 0
    outer loop
      vertex 30 2 2
      vertex 30 0 0
      vertex 30 0 2
    endloop
  endfacet
  facet normal 1 0 0
    outer loop
      vertex 32 0 2
      vertex 32 2 0
      vertex 32 2 2
    endloop
  endfacet
  facet normal 0 0 1
    outer loop
      vertex 32 0 2
      vertex 30 2 2
      vertex 30 0 2
    endloop
  endfacet
  facet normal 0 0 1
    outer loop
      vertex 30 2 2
      vertex 32 0 2
      vertex 32 2 2
    endloop
  endfacet
  facet normal 0 1 0
    outer loop
      vertex 30 2 2
      vertex 32 2 0
      vertex 30 2 0
    endloop
  endfacet
  facet normal 0 1 0
    outer loop
      vertex 32 2 0
      vertex 30 2 2
      vertex 32 2 2
    endloop
  endfacet
endsolid OpenSCAD_Model
